<?xml version="1.0" encoding="UTF-8"?>
<svg xmlns="http://www.w3.org/2000/svg" xmlns:xlink="http://www.w3.org/1999/xlink" width="119px" height="56px" viewBox="0 0 118 56" version="1.1">
<g id="surface1">
<path style=" stroke:none;fill-rule:nonzero;fill:rgb(73.333333%,85.098039%,91.764706%);fill-opacity:1;" d="M 5.753906 56 L 98.496094 56 C 111.722656 48.125 119.453125 37.699219 117.914062 27.53125 C 115.296875 10.234375 86.84375 0.238281 54.367188 5.207031 C 21.886719 10.175781 -2.316406 28.222656 0.304688 45.519531 C 0.894531 49.410156 2.796875 52.933594 5.753906 56 "/>
<path style=" stroke:none;fill-rule:nonzero;fill:rgb(0%,0%,0%);fill-opacity:1;" d="M 12.78125 6.667969 C 12.15625 6.667969 11.613281 6.898438 11.171875 7.351562 C 10.730469 7.804688 10.507812 8.347656 10.507812 8.964844 C 10.507812 9.492188 10.683594 9.984375 11.027344 10.425781 C 11.027344 10.425781 16.75 17.726562 17.011719 18.0625 C 16.46875 18.0625 13.210938 18.0625 13.210938 18.0625 C 13.109375 18.0625 13.0625 18.03125 13.027344 17.996094 C 12.992188 17.960938 12.96875 17.921875 12.96875 17.839844 C 12.96875 17.523438 12.847656 17.230469 12.617188 16.996094 C 12.386719 16.761719 12.09375 16.636719 11.769531 16.636719 C 10.96875 16.636719 10.507812 17.121094 10.507812 17.960938 C 10.507812 18.601562 10.765625 19.195312 11.273438 19.71875 C 11.785156 20.242188 12.394531 20.511719 13.09375 20.511719 L 17.539062 20.511719 C 18.085938 20.511719 18.582031 20.28125 19.015625 19.828125 C 19.441406 19.378906 19.660156 18.851562 19.660156 18.253906 C 19.660156 17.734375 19.480469 17.242188 19.132812 16.792969 C 19.132812 16.792969 13.417969 9.5 13.148438 9.15625 C 13.636719 9.15625 16.945312 9.15625 16.945312 9.15625 C 17.054688 9.15625 17.140625 9.175781 17.199219 9.386719 C 17.3125 9.796875 17.429688 10.070312 17.574219 10.246094 C 17.757812 10.46875 18.054688 10.582031 18.457031 10.582031 C 18.769531 10.582031 19.046875 10.460938 19.289062 10.222656 C 19.53125 9.984375 19.660156 9.679688 19.660156 9.335938 C 19.660156 8.597656 19.382812 7.957031 18.832031 7.4375 C 18.289062 6.925781 17.699219 6.667969 17.074219 6.667969 Z M 12.78125 6.667969 "/>
<path style=" stroke:none;fill-rule:nonzero;fill:rgb(0%,0%,0%);fill-opacity:1;" d="M 24.714844 6.667969 C 24.277344 6.667969 23.828125 6.820312 23.378906 7.125 C 22.941406 7.417969 22.609375 7.769531 22.398438 8.164062 L 20.480469 11.808594 C 20.210938 12.3125 20.074219 12.914062 20.074219 13.59375 C 20.074219 14.207031 20.214844 14.8125 20.496094 15.394531 L 22.394531 19.085938 C 22.59375 19.460938 22.9375 19.796875 23.414062 20.082031 C 23.890625 20.367188 24.367188 20.511719 24.832031 20.511719 L 27.902344 20.511719 C 28.234375 20.511719 28.53125 20.390625 28.769531 20.160156 C 29.011719 19.925781 29.140625 19.621094 29.140625 19.285156 C 29.140625 18.949219 29.011719 18.648438 28.769531 18.414062 C 28.527344 18.179688 28.234375 18.0625 27.902344 18.0625 L 24.933594 18.0625 C 24.710938 18.0625 24.585938 17.980469 24.488281 17.773438 L 22.75 14.398438 C 22.625 14.160156 22.558594 13.878906 22.550781 13.558594 C 22.550781 13.265625 22.609375 13.007812 22.71875 12.800781 L 24.527344 9.378906 C 24.65625 9.132812 24.757812 9.136719 24.804688 9.136719 L 27.960938 9.136719 C 28.296875 9.136719 28.597656 9.007812 28.832031 8.765625 C 29.0625 8.523438 29.183594 8.222656 29.183594 7.894531 C 29.183594 7.566406 29.0625 7.269531 28.828125 7.035156 C 28.597656 6.792969 28.296875 6.667969 27.964844 6.667969 Z M 24.714844 6.667969 "/>
<path style=" stroke:none;fill-rule:nonzero;fill:rgb(0%,0%,0%);fill-opacity:1;" d="M 32.632812 6.667969 C 32.300781 6.667969 32.003906 6.789062 31.769531 7.023438 C 31.539062 7.257812 31.414062 7.558594 31.414062 7.890625 C 31.414062 8.21875 31.539062 8.515625 31.773438 8.753906 C 32.011719 8.992188 32.308594 9.117188 32.632812 9.117188 L 35.761719 9.117188 C 35.886719 9.117188 35.980469 9.152344 36.066406 9.238281 C 36.148438 9.324219 36.1875 9.417969 36.1875 9.539062 C 36.1875 9.539062 36.199219 9.882812 36.210938 10.214844 C 36.078125 10.195312 35.957031 10.1875 35.859375 10.1875 L 32.632812 10.1875 C 31.839844 10.1875 31.15625 10.472656 30.59375 11.03125 C 30.03125 11.59375 29.746094 12.28125 29.746094 13.078125 L 29.746094 14.039062 C 29.746094 14.839844 30.027344 15.527344 30.585938 16.085938 C 31.140625 16.644531 31.828125 16.929688 32.625 16.929688 L 35.511719 16.929688 C 35.511719 16.929688 36.164062 16.542969 36.574219 16.304688 C 36.628906 16.398438 36.679688 16.5 36.761719 16.578125 C 37 16.8125 37.296875 16.929688 37.636719 16.929688 C 37.960938 16.929688 38.253906 16.808594 38.492188 16.574219 C 38.730469 16.34375 38.855469 16.042969 38.855469 15.707031 L 38.644531 9.523438 C 38.625 8.730469 38.332031 8.046875 37.777344 7.496094 C 37.222656 6.945312 36.542969 6.667969 35.761719 6.667969 Z M 32.332031 14.308594 C 32.242188 14.222656 32.203125 14.132812 32.203125 14.015625 L 32.203125 13.097656 C 32.203125 12.976562 32.242188 12.886719 32.328125 12.800781 C 32.414062 12.714844 32.503906 12.675781 32.628906 12.675781 L 35.859375 12.675781 C 35.980469 12.675781 36.074219 12.714844 36.15625 12.796875 C 36.238281 12.882812 36.28125 12.984375 36.285156 13.121094 C 36.285156 13.121094 36.300781 13.375 36.316406 13.589844 C 36.003906 13.769531 34.980469 14.355469 34.835938 14.4375 C 34.644531 14.4375 32.628906 14.4375 32.628906 14.4375 C 32.511719 14.4375 32.421875 14.398438 32.332031 14.308594 Z M 32.332031 14.308594 "/>
<path style=" stroke:none;fill-rule:nonzero;fill:rgb(0%,0%,0%);fill-opacity:1;" d="M 41.207031 7.027344 C 40.972656 7.265625 40.847656 7.5625 40.847656 7.890625 L 40.847656 20.511719 L 48.699219 20.511719 C 49.027344 20.511719 49.328125 20.390625 49.566406 20.160156 C 49.808594 19.925781 49.933594 19.621094 49.933594 19.285156 C 49.933594 18.953125 49.808594 18.648438 49.566406 18.414062 C 49.328125 18.183594 49.027344 18.0625 48.699219 18.0625 C 48.699219 18.0625 43.972656 18.0625 43.285156 18.0625 C 43.285156 17.328125 43.285156 7.886719 43.285156 7.886719 C 43.285156 7.5625 43.160156 7.265625 42.921875 7.027344 C 42.6875 6.792969 42.390625 6.667969 42.066406 6.667969 C 41.742188 6.667969 41.445312 6.792969 41.207031 7.027344 "/>
<path style=" stroke:none;fill-rule:nonzero;fill:rgb(0%,0%,0%);fill-opacity:1;" d="M 51.683594 6.667969 L 51.289062 6.667969 L 51.289062 20.511719 L 59.140625 20.511719 C 59.46875 20.511719 59.769531 20.390625 60.007812 20.160156 C 60.25 19.925781 60.378906 19.621094 60.378906 19.285156 C 60.378906 18.953125 60.253906 18.652344 60.015625 18.417969 C 59.777344 18.183594 59.484375 18.0625 59.160156 18.0625 C 59.160156 18.0625 54.414062 18.0625 53.726562 18.0625 C 53.726562 17.488281 53.726562 15.390625 53.726562 14.8125 C 54.289062 14.8125 55.84375 14.8125 55.84375 14.8125 C 56.175781 14.8125 56.476562 14.6875 56.710938 14.449219 C 56.941406 14.210938 57.0625 13.90625 57.0625 13.570312 C 57.0625 13.242188 56.9375 12.945312 56.703125 12.707031 C 56.464844 12.46875 56.167969 12.34375 55.84375 12.34375 C 55.84375 12.34375 54.289062 12.34375 53.726562 12.34375 C 53.726562 11.769531 53.726562 9.710938 53.726562 9.136719 C 54.414062 9.136719 59.140625 9.136719 59.140625 9.136719 C 59.472656 9.136719 59.769531 9.011719 60.007812 8.777344 C 60.25 8.539062 60.378906 8.238281 60.378906 7.910156 C 60.378906 7.578125 60.25 7.277344 60.011719 7.035156 C 59.773438 6.792969 59.472656 6.667969 59.140625 6.667969 Z M 51.683594 6.667969 "/>
<path style=" stroke:none;fill-rule:nonzero;fill:rgb(100%,100%,100%);fill-opacity:1;" d="M 77.246094 2.058594 C 77.203125 2.058594 77.160156 2.058594 77.113281 2.058594 C 75.4375 2.136719 74.574219 3.449219 74.269531 4.535156 C 73.941406 5.710938 74.175781 6.457031 73.914062 6.804688 C 73.261719 7.671875 71.429688 8.398438 70.273438 8.660156 C 70.273438 8.660156 70.46875 10.042969 70.761719 10.867188 C 71.058594 11.691406 71.398438 12.210938 71.183594 13.4375 C 70.96875 14.664062 69.257812 18.058594 67.882812 21.003906 C 66.292969 24.410156 63.992188 29.519531 64.003906 35.734375 C 64.007812 38.113281 64.296875 40.289062 64.691406 42.160156 C 64.738281 42.234375 64.769531 42.296875 64.777344 42.355469 C 64.925781 43.191406 67.589844 45.199219 71.707031 45.613281 C 75.375 45.984375 77.542969 45.335938 77.519531 41.839844 C 77.480469 35.28125 72.265625 28.621094 72.492188 24.460938 C 72.988281 15.539062 79.652344 9.074219 79.550781 4.867188 C 79.515625 3.40625 78.621094 2.078125 77.246094 2.058594 Z M 77.246094 2.058594 "/>
<path style=" stroke:none;fill-rule:nonzero;fill:rgb(54.901961%,67.843137%,79.607843%);fill-opacity:1;" d="M 75.738281 0.554688 C 74.230469 0.554688 72.542969 1.09375 71.644531 2.269531 C 70.332031 3.980469 70.207031 6.898438 70.207031 6.898438 C 70.207031 6.898438 68.949219 7.300781 69.238281 8.09375 C 69.484375 8.78125 70.070312 8.707031 70.226562 8.671875 C 70.226562 8.671875 70.230469 8.671875 70.230469 8.671875 C 70.253906 8.664062 70.265625 8.660156 70.265625 8.660156 C 71.421875 8.398438 73.253906 7.671875 73.90625 6.804688 C 74.167969 6.457031 73.933594 5.710938 74.261719 4.535156 C 74.566406 3.449219 75.429688 2.136719 77.105469 2.058594 C 78.554688 1.992188 79.507812 3.359375 79.542969 4.867188 C 79.644531 9.074219 72.980469 15.539062 72.484375 24.460938 C 72.257812 28.621094 77.472656 35.28125 77.511719 41.839844 C 77.53125 45.335938 75.367188 45.984375 71.695312 45.613281 C 67.582031 45.199219 64.917969 43.191406 64.769531 42.355469 C 64.761719 42.296875 64.730469 42.234375 64.683594 42.160156 C 65.566406 46.320312 66.980469 48.972656 66.980469 48.972656 C 66.980469 48.972656 64.515625 49.644531 64.585938 50.132812 C 64.640625 50.484375 67.554688 51.808594 67.898438 51.757812 C 68.289062 51.703125 69.777344 50.023438 70.53125 49.808594 C 71.457031 49.539062 83.113281 50.867188 84.03125 51.484375 C 84.300781 51.667969 84.09375 53.183594 84.679688 53.632812 C 84.984375 53.867188 89.769531 53.132812 89.992188 52.839844 C 90.171875 52.609375 88.238281 51.179688 88.238281 51.179688 C 88.996094 49.40625 89.902344 47.8125 89.851562 43.457031 C 89.765625 36.683594 87.050781 29.84375 84.246094 25.324219 C 85.878906 25.640625 88.988281 24.800781 89.007812 24.242188 C 89.027344 23.59375 87.839844 23.394531 87.335938 23.324219 C 86.832031 23.25 82.90625 21.046875 81.089844 19.191406 C 80.828125 18.1875 80.699219 17.277344 80.746094 15.691406 C 80.800781 13.886719 81.664062 9.414062 81.734375 6.363281 C 81.796875 3.761719 80.101562 0.625 75.738281 0.554688 Z M 75.738281 0.554688 "/>
<path style=" stroke:none;fill-rule:nonzero;fill:rgb(54.901961%,67.843137%,79.607843%);fill-opacity:1;" d="M 67.847656 21.082031 C 66.585938 21.421875 64.585938 22.054688 64.578125 22.671875 C 64.574219 23.214844 65.964844 23.191406 66.929688 23.105469 C 67.246094 22.378906 67.558594 21.703125 67.847656 21.082031 Z M 67.847656 21.082031 "/>
<path style="fill:none;stroke-width:3.3592;stroke-linecap:round;stroke-linejoin:miter;stroke:rgb(0%,0%,0%);stroke-opacity:1;stroke-miterlimit:2.818;" d="M 385.976358 114.619081 C 396.334029 132.827536 408.089448 155.387472 411.547979 187.524236 C 413.429563 205.055001 409.935193 224.190821 404.290441 232.661943 C 411.082063 238.547144 414.128437 240.38404 412.963647 240.794221 C 410.867025 241.507578 390.241281 244.59285 388.610575 243.790323 C 384.865327 241.917759 387.159068 235.675879 384.954926 233.874651 C 381.442636 231.02122 335.926226 226.330894 327.324699 226.206056 C 319.06365 226.099052 320.640596 229.023819 311.214757 235.3192 C 309.118135 235.604544 295.337773 229.023819 295.785769 227.739775 C 296.341284 226.116886 299.674376 224.832843 306.770635 222.585766 C 303.204586 213.276448 294.405941 195.032325 293.259071 166.533686 C 291.341647 118.667386 320.461398 83.873365 321.482829 69.320868 " transform="matrix(0.217985,0,0,0.219035,0.109205,0.218677)"/>
<path style="fill:none;stroke-width:3.3592;stroke-linecap:round;stroke-linejoin:miter;stroke:rgb(0%,0%,0%);stroke-opacity:1;stroke-miterlimit:2.818;" d="M 321.805386 30.496376 C 322.360902 17.263591 328.077333 4.209146 339.133878 2.37225 C 361.677045 -1.355044 372.411034 10.451026 374.418056 25.12836 C 376.586358 40.804395 366.067408 66.966788 371.730079 86.619792 " transform="matrix(0.217985,0,0,0.219035,0.109205,0.218677)"/>
<path style="fill:none;stroke-width:3.3592;stroke-linecap:round;stroke-linejoin:miter;stroke:rgb(0%,0%,0%);stroke-opacity:1;stroke-miterlimit:2.818;" d="M 325.747753 50.898406 C 323.830329 47.474289 322.61178 43.211977 322.074184 38.539484 " transform="matrix(0.217985,0,0,0.219035,0.109205,0.218677)"/>
<path style="fill:none;stroke-width:3.3592;stroke-linecap:round;stroke-linejoin:miter;stroke:rgb(0%,0%,0%);stroke-opacity:1;stroke-miterlimit:2.818;" d="M 311.107238 94.894741 C 302.595311 97.855175 295.266093 100.066584 295.266093 102.634672 C 295.266093 105.220593 304.530654 104.471568 306.860234 103.740376 " transform="matrix(0.217985,0,0,0.219035,0.109205,0.218677)"/>
<path style="fill:none;stroke-width:3.3592;stroke-linecap:round;stroke-linejoin:miter;stroke:rgb(0%,0%,0%);stroke-opacity:1;stroke-miterlimit:2.818;" d="M 332.449775 27.839119 C 329.242123 27.714281 324.995119 28.998325 321.948745 30.478542 C 320.389719 31.227568 319.135329 32.030095 318.490215 32.725619 C 316.572791 34.758689 318.651493 38.093636 320.425558 38.646488 C 320.730196 38.735658 321.249871 38.69999 321.930825 38.592986 C 325.102638 38.040134 331.500024 35.507714 332.879852 34.580349 C 334.546398 33.438977 338.399165 32.261937 338.883 28.427639 C 339.259317 17.762942 344.294794 7.811602 353.398076 8.542794 C 364.63382 9.452325 365.655251 22.59594 363.612389 29.176665 C 359.365385 42.801796 336.177104 71.514443 332.001779 107.289331 C 329.152524 131.57916 366.013648 176.378022 351.76737 201.506046 C 344.025996 215.131178 298.276628 202.629585 296.645922 192.375068 " transform="matrix(0.217985,0,0,0.219035,0.109205,0.218677)"/>
<path style="fill:none;stroke-width:3.3592;stroke-linecap:round;stroke-linejoin:miter;stroke:rgb(0%,0%,0%);stroke-opacity:1;stroke-miterlimit:2.818;" d="M 371.730079 86.619792 C 375.977083 91.952141 397.480899 105.291929 401.727903 105.648608 C 405.974907 106.023121 411.3867 110.445938 405.58067 111.908322 C 400.778151 113.138864 392.76798 115.368106 385.976358 114.619081 C 378.880098 113.638214 367.716034 108.591208 367.716034 108.591208 " transform="matrix(0.217985,0,0,0.219035,0.109205,0.218677)"/>
<path style=" stroke:none;fill-rule:nonzero;fill:rgb(0%,0%,0%);fill-opacity:1;" d="M 78.140625 5.609375 C 78.613281 5.339844 78.710938 4.613281 78.359375 3.980469 C 78.007812 3.351562 77.335938 3.054688 76.863281 3.320312 C 76.390625 3.589844 76.292969 4.316406 76.644531 4.949219 C 76.996094 5.578125 77.667969 5.875 78.140625 5.609375 Z M 78.140625 5.609375 "/>
</g>
</svg>
